0
SECTION
2
HEADER
9
$INSUNITS
70
4
0
ENDSEC
0
SECTION
2
TABLES
0
TABLE
2
LTYPE
0
LTYPE
72
65
70
64
2
CONTINUOUS
3
______
73
0
40
0
0
ENDTAB
0
TABLE
2
LAYER
0
ENDTAB
0
ENDSEC
0
SECTION
2
ENTITIES
0
ARC
8
0
10
44.412178
20
-29.783331
40
0.5
50
172
51
262
0
ARC
8
0
10
62.286517
20
-32.295405
40
0.5
50
262
51
352
0
ARC
8
0
10
64.798591
20
-14.421067
40
0.5
50
352
51
82
0
ARC
8
0
10
46.924253
20
-11.908992
40
0.5
50
82
51
172
0
LINE
8
0
10
44.342592
20
-30.278465
11
62.21693
21
-32.790539
0
LINE
8
0
10
64.868178
20
-13.925933
11
46.993839
21
-11.413858
0
LINE
8
0
10
62.781651
20
-32.364992
11
65.293725
21
-14.490653
0
LINE
8
0
10
46.429119
20
-11.839406
11
43.917044
21
-29.713744
0
ARC
8
0
10
24.884759
20
-31.848235
40
0.5
50
172
51
262
0
ARC
8
0
10
42.759097
20
-34.360309
40
0.5
50
262
51
352
0
ARC
8
0
10
45.271172
20
-16.48597
40
0.5
50
352
51
82
0
ARC
8
0
10
27.396833
20
-13.973896
40
0.5
50
82
51
172
0
LINE
8
0
10
24.815172
20
-32.343369
11
42.689511
21
-34.855443
0
LINE
8
0
10
45.340758
20
-15.990836
11
27.46642
21
-13.478762
0
LINE
8
0
10
43.254231
20
-34.429896
11
45.766306
21
-16.555557
0
LINE
8
0
10
26.901699
20
-13.904309
11
24.389625
21
-31.778648
0
ARC
8
0
10
62.613973
20
-37.15073
40
0.5
50
172
51
262
0
ARC
8
0
10
80.488312
20
-39.662804
40
0.5
50
262
51
352
0
ARC
8
0
10
83.000386
20
-21.788465
40
0.5
50
352
51
82
0
ARC
8
0
10
65.126048
20
-19.276391
40
0.5
50
82
51
172
0
LINE
8
0
10
62.544387
20
-37.645864
11
80.418725
21
-40.157938
0
LINE
8
0
10
83.069973
20
-21.293331
11
65.195634
21
-18.781257
0
LINE
8
0
10
80.983446
20
-39.732391
11
83.49552
21
-21.858052
0
LINE
8
0
10
64.630914
20
-19.206804
11
62.118839
21
-37.081143
0
ARC
8
0
10
5.357341
20
-33.913138
40
0.5
50
172
51
262
0
ARC
8
0
10
23.231679
20
-36.425213
40
0.5
50
262
51
352
0
ARC
8
0
10
25.743754
20
-18.550874
40
0.5
50
352
51
82
0
ARC
8
0
10
7.869415
20
-16.0388
40
0.5
50
82
51
172
0
LINE
8
0
10
5.287754
20
-34.408272
11
23.162093
21
-36.920347
0
LINE
8
0
10
25.81334
20
-18.05574
11
7.939002
21
-15.543666
0
LINE
8
0
10
23.726813
20
-36.494799
11
26.238888
21
-18.620461
0
LINE
8
0
10
7.374281
20
-15.969213
11
4.862207
21
-33.843552
0
ARC
8
0
10
80.815768
20
-44.518129
40
0.5
50
172
51
262
0
ARC
8
0
10
98.690107
20
-47.030203
40
0.5
50
262
51
352
0
ARC
8
0
10
101.202181
20
-29.155864
40
0.5
50
352
51
82
0
ARC
8
0
10
83.327843
20
-26.64379
40
0.5
50
82
51
172
0
LINE
8
0
10
80.746182
20
-45.013263
11
98.62052
21
-47.525337
0
LINE
8
0
10
101.271768
20
-28.66073
11
83.397429
21
-26.148656
0
LINE
8
0
10
99.185241
20
-47.09979
11
101.697315
21
-29.225451
0
LINE
8
0
10
82.832709
20
-26.574203
11
80.320634
21
-44.448542
0
ARC
8
0
10
41.760931
20
-48.647936
40
0.5
50
172
51
262
0
ARC
8
0
10
59.635269
20
-51.160011
40
0.5
50
262
51
352
0
ARC
8
0
10
62.147344
20
-33.285672
40
0.5
50
352
51
82
0
ARC
8
0
10
44.273005
20
-30.773597
40
0.5
50
82
51
172
0
LINE
8
0
10
41.691344
20
-49.14307
11
59.565683
21
-51.655145
0
LINE
8
0
10
62.21693
20
-32.790538
11
44.342592
21
-30.278463
0
LINE
8
0
10
60.130403
20
-51.229597
11
62.642478
21
-33.355259
0
LINE
8
0
10
43.777871
20
-30.704011
11
41.265797
21
-48.57835
0
ARC
8
0
10
22.233511
20
-50.71284
40
0.5
50
172
51
262
0
ARC
8
0
10
40.10785
20
-53.224914
40
0.5
50
262
51
352
0
ARC
8
0
10
42.619924
20
-35.350576
40
0.5
50
352
51
82
0
ARC
8
0
10
24.745585
20
-32.838501
40
0.5
50
82
51
172
0
LINE
8
0
10
22.163924
20
-51.207974
11
40.038263
21
-53.720048
0
LINE
8
0
10
42.689511
20
-34.855442
11
24.815172
21
-32.343367
0
LINE
8
0
10
40.602984
20
-53.294501
11
43.115058
21
-35.420162
0
LINE
8
0
10
24.250451
20
-32.768915
11
21.738377
21
-50.643253
0
ARC
8
0
10
59.962726
20
-56.015335
40
0.5
50
172
51
262
0
ARC
8
0
10
77.837064
20
-58.52741
40
0.5
50
262
51
352
0
ARC
8
0
10
80.349139
20
-40.653071
40
0.5
50
352
51
82
0
ARC
8
0
10
62.4748
20
-38.140996
40
0.5
50
82
51
172
0
LINE
8
0
10
59.893139
20
-56.510469
11
77.767478
21
-59.022544
0
LINE
8
0
10
80.418725
20
-40.157937
11
62.544387
21
-37.645862
0
LINE
8
0
10
78.332198
20
-58.596996
11
80.844273
21
-40.722657
0
LINE
8
0
10
61.979666
20
-38.07141
11
59.467592
21
-55.945748
0
ARC
8
0
10
2.706093
20
-52.777746
40
0.5
50
172
51
262
0
ARC
8
0
10
20.580432
20
-55.28982
40
0.5
50
262
51
352
0
ARC
8
0
10
23.092506
20
-37.415481
40
0.5
50
352
51
82
0
ARC
8
0
10
5.218168
20
-34.903407
40
0.5
50
82
51
172
0
LINE
8
0
10
2.636507
20
-53.27288
11
20.510845
21
-55.784954
0
LINE
8
0
10
23.162093
20
-36.920347
11
5.287754
21
-34.408273
0
LINE
8
0
10
21.075566
20
-55.359407
11
23.58764
21
-37.485068
0
LINE
8
0
10
4.723034
20
-34.83382
11
2.210959
21
-52.708159
0
ARC
8
0
10
78.164521
20
-63.382736
40
0.5
50
172
51
262
0
ARC
8
0
10
96.038859
20
-65.89481
40
0.5
50
262
51
352
0
ARC
8
0
10
98.550934
20
-48.020472
40
0.5
50
352
51
82
0
ARC
8
0
10
80.676595
20
-45.508397
40
0.5
50
82
51
172
0
LINE
8
0
10
78.094934
20
-63.87787
11
95.969273
21
-66.389944
0
LINE
8
0
10
98.62052
20
-47.525338
11
80.746182
21
-45.013263
0
LINE
8
0
10
96.533993
20
-65.964397
11
99.046068
21
-48.090058
0
LINE
8
0
10
80.181461
20
-45.438811
11
77.669387
21
-63.313149
0
ARC
8
0
10
39.109683
20
-67.512543
40
0.5
50
172
51
262
0
ARC
8
0
10
56.984022
20
-70.024618
40
0.5
50
262
51
352
0
ARC
8
0
10
59.496096
20
-52.150279
40
0.5
50
352
51
82
0
ARC
8
0
10
41.621758
20
-49.638205
40
0.5
50
82
51
172
0
LINE
8
0
10
39.040097
20
-68.007677
11
56.914435
21
-70.519752
0
LINE
8
0
10
59.565683
20
-51.655145
11
41.691344
21
-49.143071
0
LINE
8
0
10
57.479156
20
-70.094204
11
59.99123
21
-52.219866
0
LINE
8
0
10
41.126624
20
-49.568618
11
38.614549
21
-67.442957
0
ARC
8
0
10
19.582263
20
-69.577447
40
0.5
50
172
51
262
0
ARC
8
0
10
37.456602
20
-72.089522
40
0.5
50
262
51
352
0
ARC
8
0
10
39.968677
20
-54.215183
40
0.5
50
352
51
82
0
ARC
8
0
10
22.094338
20
-51.703109
40
0.5
50
82
51
172
0
LINE
8
0
10
19.512677
20
-70.072581
11
37.387016
21
-72.584656
0
LINE
8
0
10
40.038263
20
-53.720049
11
22.163925
21
-51.207975
0
LINE
8
0
10
37.951736
20
-72.159108
11
40.463811
21
-54.28477
0
LINE
8
0
10
21.599204
20
-51.633522
11
19.087129
21
-69.507861
0
ARC
8
0
10
57.311478
20
-74.879942
40
0.5
50
172
51
262
0
ARC
8
0
10
75.185817
20
-77.392017
40
0.5
50
262
51
352
0
ARC
8
0
10
77.697891
20
-59.517678
40
0.5
50
352
51
82
0
ARC
8
0
10
59.823553
20
-57.005604
40
0.5
50
82
51
172
0
LINE
8
0
10
57.241892
20
-75.375076
11
75.11623
21
-77.887151
0
LINE
8
0
10
77.767478
20
-59.022544
11
59.893139
21
-56.51047
0
LINE
8
0
10
75.680951
20
-77.461603
11
78.193025
21
-59.587265
0
LINE
8
0
10
59.328419
20
-56.936017
11
56.816344
21
-74.810356
0
ARC
8
0
10
0.054846
20
-71.642351
40
0.5
50
172
51
262
0
ARC
8
0
10
17.929184
20
-74.154426
40
0.5
50
262
51
352
0
ARC
8
0
10
20.441259
20
-56.280087
40
0.5
50
352
51
82
0
ARC
8
0
10
2.56692
20
-53.768012
40
0.5
50
82
51
172
0
LINE
8
0
10
-0.014741
20
-72.137485
11
17.859598
21
-74.64956
0
LINE
8
0
10
20.510845
20
-55.784953
11
2.636507
21
-53.272878
0
LINE
8
0
10
18.424318
20
-74.224012
11
20.936393
21
-56.349673
0
LINE
8
0
10
2.071786
20
-53.698426
11
-0.440288
21
-71.572764
0
ARC
8
0
10
75.513273
20
-82.247341
40
0.5
50
172
51
262
0
ARC
8
0
10
93.387612
20
-84.759416
40
0.5
50
262
51
352
0
ARC
8
0
10
95.899686
20
-66.885077
40
0.5
50
352
51
82
0
ARC
8
0
10
78.025347
20
-64.373003
40
0.5
50
82
51
172
0
LINE
8
0
10
75.443686
20
-82.742475
11
93.318025
21
-85.25455
0
LINE
8
0
10
95.969273
20
-66.389943
11
78.094934
21
-63.877869
0
LINE
8
0
10
93.882746
20
-84.829002
11
96.39482
21
-66.954664
0
LINE
8
0
10
77.530213
20
-64.303416
11
75.018139
21
-82.177755
0
ARC
8
0
10
36.458436
20
-86.377151
40
0.5
50
172
51
262
0
ARC
8
0
10
54.332774
20
-88.889225
40
0.5
50
262
51
352
0
ARC
8
0
10
56.844849
20
-71.014887
40
0.5
50
352
51
82
0
ARC
8
0
10
38.97051
20
-68.502812
40
0.5
50
82
51
172
0
LINE
8
0
10
36.388849
20
-86.872285
11
54.263188
21
-89.384359
0
LINE
8
0
10
56.914435
20
-70.519753
11
39.040097
21
-68.007678
0
LINE
8
0
10
54.827908
20
-88.958812
11
57.339983
21
-71.084473
0
LINE
8
0
10
38.475376
20
-68.433226
11
35.963302
21
-86.307564
0
ARC
8
0
10
92.389443
20
-99.047045
40
0.5
50
172
51
262
0
ARC
8
0
10
110.263781
20
-101.559119
40
0.5
50
262
51
352
0
ARC
8
0
10
113.438668
20
-78.968629
40
0.5
50
352
51
82
0
ARC
8
0
10
95.564329
20
-76.456555
40
0.5
50
82
51
172
0
LINE
8
0
10
92.319856
20
-99.542179
11
110.194195
21
-102.054253
0
LINE
8
0
10
113.508254
20
-78.473495
11
95.633915
21
-75.961421
0
LINE
8
0
10
110.758915
20
-101.628706
11
113.933802
21
-79.038216
0
LINE
8
0
10
95.069195
20
-76.386968
11
91.894309
21
-98.977458
0
ARC
8
0
10
178.16075
20
-32.167871
40
0.5
50
188
51
278
0
ARC
8
0
10
196.035089
20
-29.655797
40
0.5
50
278
51
8
0
ARC
8
0
10
193.523015
20
-11.781458
40
0.5
50
8
51
98
0
ARC
8
0
10
175.648676
20
-14.293532
40
0.5
50
98
51
188
0
LINE
8
0
10
178.230337
20
-32.663005
11
196.104676
21
-30.150931
0
LINE
8
0
10
193.453428
20
-11.286324
11
175.579089
21
-13.798398
0
LINE
8
0
10
196.530223
20
-29.58621
11
194.018149
21
-11.711871
0
LINE
8
0
10
175.153542
20
-14.363119
11
177.665616
21
-32.237458
0
ARC
8
0
10
159.958956
20
-39.53527
40
0.5
50
188
51
278
0
ARC
8
0
10
177.833294
20
-37.023196
40
0.5
50
278
51
8
0
ARC
8
0
10
175.32122
20
-19.148857
40
0.5
50
8
51
98
0
ARC
8
0
10
157.446881
20
-21.660931
40
0.5
50
98
51
188
0
LINE
8
0
10
160.028542
20
-40.030404
11
177.902881
21
-37.51833
0
LINE
8
0
10
175.251633
20
-18.653723
11
157.377295
21
-21.165797
0
LINE
8
0
10
178.328428
20
-36.953609
11
175.816354
21
-19.07927
0
LINE
8
0
10
156.951747
20
-21.730518
11
159.463822
21
-39.604857
0
ARC
8
0
10
197.688168
20
-34.232775
40
0.5
50
188
51
278
0
ARC
8
0
10
215.562507
20
-31.7207
40
0.5
50
278
51
8
0
ARC
8
0
10
213.050432
20
-13.846362
40
0.5
50
8
51
98
0
ARC
8
0
10
195.176094
20
-16.358436
40
0.5
50
98
51
188
0
LINE
8
0
10
197.757755
20
-34.727909
11
215.632093
21
-32.215834
0
LINE
8
0
10
212.980846
20
-13.351228
11
195.106507
21
-15.863302
0
LINE
8
0
10
216.057641
20
-31.651114
11
213.545566
21
-13.776775
0
LINE
8
0
10
194.68096
20
-16.428023
11
197.193034
21
-34.302361
0
ARC
8
0
10
141.757161
20
-46.902669
40
0.5
50
188
51
278
0
ARC
8
0
10
159.631499
20
-44.390594
40
0.5
50
278
51
8
0
ARC
8
0
10
157.119425
20
-26.516256
40
0.5
50
8
51
98
0
ARC
8
0
10
139.245086
20
-29.02833
40
0.5
50
98
51
188
0
LINE
8
0
10
141.826747
20
-47.397803
11
159.701086
21
-44.885728
0
LINE
8
0
10
157.049838
20
-26.021122
11
139.1755
21
-28.533196
0
LINE
8
0
10
160.126633
20
-44.321008
11
157.614559
21
-26.446669
0
LINE
8
0
10
138.749952
20
-29.097917
11
141.262027
21
-46.972255
0
ARC
8
0
10
217.215588
20
-36.297679
40
0.5
50
188
51
278
0
ARC
8
0
10
235.089927
20
-33.785604
40
0.5
50
278
51
8
0
ARC
8
0
10
232.577852
20
-15.911266
40
0.5
50
8
51
98
0
ARC
8
0
10
214.703513
20
-18.42334
40
0.5
50
98
51
188
0
LINE
8
0
10
217.285175
20
-36.792813
11
235.159513
21
-34.280738
0
LINE
8
0
10
232.508266
20
-15.416132
11
214.633927
21
-17.928206
0
LINE
8
0
10
235.585061
20
-33.716018
11
233.072986
21
-15.841679
0
LINE
8
0
10
214.208379
20
-18.492927
11
216.720454
21
-36.367265
0
ARC
8
0
10
180.811998
20
-51.032478
40
0.5
50
188
51
278
0
ARC
8
0
10
198.686337
20
-48.520404
40
0.5
50
278
51
8
0
ARC
8
0
10
196.174262
20
-30.646065
40
0.5
50
8
51
98
0
ARC
8
0
10
178.299924
20
-33.15814
40
0.5
50
98
51
188
0
LINE
8
0
10
180.881585
20
-51.527612
11
198.755923
21
-49.015538
0
LINE
8
0
10
196.104676
20
-30.150931
11
178.230337
21
-32.663006
0
LINE
8
0
10
199.181471
20
-48.450817
11
196.669396
21
-30.576479
0
LINE
8
0
10
177.80479
20
-33.227726
11
180.316864
21
-51.102065
0
ARC
8
0
10
162.610203
20
-58.399877
40
0.5
50
188
51
278
0
ARC
8
0
10
180.484542
20
-55.887803
40
0.5
50
278
51
8
0
ARC
8
0
10
177.972467
20
-38.013464
40
0.5
50
8
51
98
0
ARC
8
0
10
160.098129
20
-40.525539
40
0.5
50
98
51
188
0
LINE
8
0
10
162.67979
20
-58.895011
11
180.554128
21
-56.382937
0
LINE
8
0
10
177.902881
20
-37.51833
11
160.028542
21
-40.030405
0
LINE
8
0
10
180.979676
20
-55.818216
11
178.467601
21
-37.943878
0
LINE
8
0
10
159.602995
20
-40.595125
11
162.115069
21
-58.469464
0
ARC
8
0
10
200.339418
20
-53.097382
40
0.5
50
188
51
278
0
ARC
8
0
10
218.213756
20
-50.585308
40
0.5
50
278
51
8
0
ARC
8
0
10
215.701682
20
-32.710969
40
0.5
50
8
51
98
0
ARC
8
0
10
197.827343
20
-35.223044
40
0.5
50
98
51
188
0
LINE
8
0
10
200.409004
20
-53.592516
11
218.283343
21
-51.080442
0
LINE
8
0
10
215.632095
20
-32.215835
11
197.757757
21
-34.72791
0
LINE
8
0
10
218.70889
20
-50.515721
11
216.196816
21
-32.641383
0
LINE
8
0
10
197.332209
20
-35.29263
11
199.844284
21
-53.166969
0
ARC
8
0
10
144.408408
20
-65.767276
40
0.5
50
188
51
278
0
ARC
8
0
10
162.282747
20
-63.255202
40
0.5
50
278
51
8
0
ARC
8
0
10
159.770672
20
-45.380863
40
0.5
50
8
51
98
0
ARC
8
0
10
141.896334
20
-47.892938
40
0.5
50
98
51
188
0
LINE
8
0
10
144.477995
20
-66.26241
11
162.352333
21
-63.750336
0
LINE
8
0
10
159.701086
20
-44.885729
11
141.826747
21
-47.397804
0
LINE
8
0
10
162.777881
20
-63.185615
11
160.265806
21
-45.311277
0
LINE
8
0
10
141.4012
20
-47.962524
11
143.913274
21
-65.836863
0
ARC
8
0
10
219.866835
20
-55.162286
40
0.5
50
188
51
278
0
ARC
8
0
10
237.741174
20
-52.650212
40
0.5
50
278
51
8
0
ARC
8
0
10
235.2291
20
-34.775873
40
0.5
50
8
51
98
0
ARC
8
0
10
217.354761
20
-37.287947
40
0.5
50
98
51
188
0
LINE
8
0
10
219.936422
20
-55.65742
11
237.810761
21
-53.145346
0
LINE
8
0
10
235.159513
20
-34.280739
11
217.285174
21
-36.792813
0
LINE
8
0
10
238.236308
20
-52.580625
11
235.724234
21
-34.706286
0
LINE
8
0
10
216.859627
20
-37.357534
11
219.371701
21
-55.231873
0
ARC
8
0
10
183.463246
20
-69.897086
40
0.5
50
188
51
278
0
ARC
8
0
10
201.337584
20
-67.385011
40
0.5
50
278
51
8
0
ARC
8
0
10
198.82551
20
-49.510673
40
0.5
50
8
51
98
0
ARC
8
0
10
180.951171
20
-52.022747
40
0.5
50
98
51
188
0
LINE
8
0
10
183.532832
20
-70.39222
11
201.407171
21
-67.880145
0
LINE
8
0
10
198.755923
20
-49.015539
11
180.881585
21
-51.527613
0
LINE
8
0
10
201.832718
20
-67.315425
11
199.320644
21
-49.441086
0
LINE
8
0
10
180.456037
20
-52.092334
11
182.968112
21
-69.966672
0
ARC
8
0
10
165.261451
20
-77.264485
40
0.5
50
188
51
278
0
ARC
8
0
10
183.135789
20
-74.75241
40
0.5
50
278
51
8
0
ARC
8
0
10
180.623715
20
-56.878072
40
0.5
50
8
51
98
0
ARC
8
0
10
162.749376
20
-59.390146
40
0.5
50
98
51
188
0
LINE
8
0
10
165.331037
20
-77.759619
11
183.205376
21
-75.247544
0
LINE
8
0
10
180.554128
20
-56.382938
11
162.67979
21
-58.895012
0
LINE
8
0
10
183.630923
20
-74.682824
11
181.118849
21
-56.808485
0
LINE
8
0
10
162.254242
20
-59.459733
11
164.766317
21
-77.334071
0
ARC
8
0
10
202.990665
20
-71.96199
40
0.5
50
188
51
278
0
ARC
8
0
10
220.865004
20
-69.449915
40
0.5
50
278
51
8
0
ARC
8
0
10
218.352929
20
-51.575576
40
0.5
50
8
51
98
0
ARC
8
0
10
200.478591
20
-54.087651
40
0.5
50
98
51
188
0
LINE
8
0
10
203.060252
20
-72.457124
11
220.93459
21
-69.945049
0
LINE
8
0
10
218.283343
20
-51.080442
11
200.409004
21
-53.592517
0
LINE
8
0
10
221.360138
20
-69.380328
11
218.848063
21
-51.50599
0
LINE
8
0
10
199.983457
20
-54.157237
11
202.495531
21
-72.031576
0
ARC
8
0
10
147.059656
20
-84.631884
40
0.5
50
188
51
278
0
ARC
8
0
10
164.933994
20
-82.119809
40
0.5
50
278
51
8
0
ARC
8
0
10
162.42192
20
-64.24547
40
0.5
50
8
51
98
0
ARC
8
0
10
144.547581
20
-66.757545
40
0.5
50
98
51
188
0
LINE
8
0
10
147.129242
20
-85.127018
11
165.003581
21
-82.614943
0
LINE
8
0
10
162.352333
20
-63.750336
11
144.477995
21
-66.262411
0
LINE
8
0
10
165.429128
20
-82.050223
11
162.917054
21
-64.175884
0
LINE
8
0
10
144.052447
20
-66.827132
11
146.564522
21
-84.70147
0
ARC
8
0
10
222.518083
20
-74.026893
40
0.5
50
188
51
278
0
ARC
8
0
10
240.392422
20
-71.514819
40
0.5
50
278
51
8
0
ARC
8
0
10
237.880347
20
-53.64048
40
0.5
50
8
51
98
0
ARC
8
0
10
220.006009
20
-56.152555
40
0.5
50
98
51
188
0
LINE
8
0
10
222.58767
20
-74.522027
11
240.462008
21
-72.009953
0
LINE
8
0
10
237.810761
20
-53.145346
11
219.936422
21
-55.657421
0
LINE
8
0
10
240.887556
20
-71.445232
11
238.375481
21
-53.570894
0
LINE
8
0
10
219.510875
20
-56.222141
11
222.022949
21
-74.09648
0
ARC
8
0
10
130.183484
20
-101.431585
40
0.5
50
188
51
278
0
ARC
8
0
10
148.057823
20
-98.919511
40
0.5
50
278
51
8
0
ARC
8
0
10
144.882937
20
-76.329021
40
0.5
50
8
51
98
0
ARC
8
0
10
127.008598
20
-78.841095
40
0.5
50
98
51
188
0
LINE
8
0
10
130.253071
20
-101.926719
11
148.12741
21
-99.414645
0
LINE
8
0
10
144.81335
20
-75.833887
11
126.939011
21
-78.345961
0
LINE
8
0
10
148.552957
20
-98.849924
11
145.378071
21
-76.259434
0
LINE
8
0
10
126.513464
20
-78.910682
11
129.68835
21
-101.501172
0
ARC
8
0
10
186.114493
20
-88.761691
40
0.5
50
188
51
278
0
ARC
8
0
10
203.988832
20
-86.249617
40
0.5
50
278
51
8
0
ARC
8
0
10
201.476757
20
-68.375278
40
0.5
50
8
51
98
0
ARC
8
0
10
183.602419
20
-70.887352
40
0.5
50
98
51
188
0
LINE
8
0
10
186.18408
20
-89.256825
11
204.058418
21
-86.744751
0
LINE
8
0
10
201.407171
20
-67.880144
11
183.532832
21
-70.392218
0
LINE
8
0
10
204.483966
20
-86.18003
11
201.971891
21
-68.305691
0
LINE
8
0
10
183.107285
20
-70.956939
11
185.619359
21
-88.831278
0
ENDSEC
0
EOF