0
SECTION
2
HEADER
9
$INSUNITS
70
4
0
ENDSEC
0
SECTION
2
TABLES
0
TABLE
2
LTYPE
0
LTYPE
72
65
70
64
2
CONTINUOUS
3
______
73
0
40
0
0
ENDTAB
0
TABLE
2
LAYER
0
ENDTAB
0
ENDSEC
0
SECTION
2
ENTITIES
0
ARC
8
0
10
47.264017
20
-27.634316
40
0.5
50
172
51
262
0
ARC
8
0
10
60.137502
20
-29.443566
40
0.5
50
262
51
352
0
ARC
8
0
10
61.946752
20
-16.570081
40
0.5
50
352
51
82
0
ARC
8
0
10
49.073268
20
-14.760831
40
0.5
50
82
51
172
0
LINE
8
0
10
47.194431
20
-28.12945
11
60.067916
21
-29.9387
0
LINE
8
0
10
62.016339
20
-16.074947
11
49.142854
21
-14.265697
0
LINE
8
0
10
60.632636
20
-29.513153
11
62.441886
21
-16.639668
0
LINE
8
0
10
48.578134
20
-14.691244
11
46.768883
21
-27.564729
0
ARC
8
0
10
27.736598
20
-29.69922
40
0.5
50
172
51
262
0
ARC
8
0
10
40.610082
20
-31.50847
40
0.5
50
262
51
352
0
ARC
8
0
10
42.419333
20
-18.634985
40
0.5
50
352
51
82
0
ARC
8
0
10
29.545848
20
-16.825735
40
0.5
50
82
51
172
0
LINE
8
0
10
27.667011
20
-30.194354
11
40.540496
21
-32.003604
0
LINE
8
0
10
42.488919
20
-18.139851
11
29.615434
21
-16.330601
0
LINE
8
0
10
41.105216
20
-31.578057
11
42.914467
21
-18.704572
0
LINE
8
0
10
29.050714
20
-16.756148
11
27.241464
21
-29.629633
0
ARC
8
0
10
65.465812
20
-35.001715
40
0.5
50
172
51
262
0
ARC
8
0
10
78.339297
20
-36.810965
40
0.5
50
262
51
352
0
ARC
8
0
10
80.148547
20
-23.93748
40
0.5
50
352
51
82
0
ARC
8
0
10
67.275062
20
-22.12823
40
0.5
50
82
51
172
0
LINE
8
0
10
65.396226
20
-35.496849
11
78.26971
21
-37.306099
0
LINE
8
0
10
80.218134
20
-23.442346
11
67.344649
21
-21.633096
0
LINE
8
0
10
78.834431
20
-36.880552
11
80.643681
21
-24.007067
0
LINE
8
0
10
66.779928
20
-22.058643
11
64.970678
21
-34.932128
0
ARC
8
0
10
8.20918
20
-31.764124
40
0.5
50
172
51
262
0
ARC
8
0
10
21.082665
20
-33.573374
40
0.5
50
262
51
352
0
ARC
8
0
10
22.891915
20
-20.699889
40
0.5
50
352
51
82
0
ARC
8
0
10
10.01843
20
-18.890639
40
0.5
50
82
51
172
0
LINE
8
0
10
8.139593
20
-32.259258
11
21.013078
21
-34.068508
0
LINE
8
0
10
22.961502
20
-20.204755
11
10.088017
21
-18.395505
0
LINE
8
0
10
21.577799
20
-33.64296
11
23.387049
21
-20.769476
0
LINE
8
0
10
9.523296
20
-18.821052
11
7.714046
21
-31.694537
0
ARC
8
0
10
83.667607
20
-42.369114
40
0.5
50
172
51
262
0
ARC
8
0
10
96.541092
20
-44.178364
40
0.5
50
262
51
352
0
ARC
8
0
10
98.350342
20
-31.304879
40
0.5
50
352
51
82
0
ARC
8
0
10
85.476857
20
-29.495629
40
0.5
50
82
51
172
0
LINE
8
0
10
83.598021
20
-42.864248
11
96.471505
21
-44.673498
0
LINE
8
0
10
98.419929
20
-30.809745
11
85.546444
21
-29.000495
0
LINE
8
0
10
97.036226
20
-44.247951
11
98.845476
21
-31.374466
0
LINE
8
0
10
84.981723
20
-29.426042
11
83.172473
21
-42.299527
0
ARC
8
0
10
44.61277
20
-46.498921
40
0.5
50
172
51
262
0
ARC
8
0
10
57.486255
20
-48.308172
40
0.5
50
262
51
352
0
ARC
8
0
10
59.295505
20
-35.434687
40
0.5
50
352
51
82
0
ARC
8
0
10
46.42202
20
-33.625436
40
0.5
50
82
51
172
0
LINE
8
0
10
44.543183
20
-46.994055
11
57.416668
21
-48.803306
0
LINE
8
0
10
59.365091
20
-34.939553
11
46.491607
21
-33.130302
0
LINE
8
0
10
57.981389
20
-48.377758
11
59.790639
21
-35.504273
0
LINE
8
0
10
45.926886
20
-33.55585
11
44.117636
21
-46.429335
0
ARC
8
0
10
25.08535
20
-48.563825
40
0.5
50
172
51
262
0
ARC
8
0
10
37.958835
20
-50.373075
40
0.5
50
262
51
352
0
ARC
8
0
10
39.768085
20
-37.499591
40
0.5
50
352
51
82
0
ARC
8
0
10
26.8946
20
-35.69034
40
0.5
50
82
51
172
0
LINE
8
0
10
25.015763
20
-49.058959
11
37.889248
21
-50.868209
0
LINE
8
0
10
39.837672
20
-37.004457
11
26.964187
21
-35.195206
0
LINE
8
0
10
38.453969
20
-50.442662
11
40.263219
21
-37.569177
0
LINE
8
0
10
26.399466
20
-35.620754
11
24.590216
21
-48.494239
0
ARC
8
0
10
62.814565
20
-53.86632
40
0.5
50
172
51
262
0
ARC
8
0
10
75.68805
20
-55.675571
40
0.5
50
262
51
352
0
ARC
8
0
10
77.4973
20
-42.802086
40
0.5
50
352
51
82
0
ARC
8
0
10
64.623815
20
-40.992835
40
0.5
50
82
51
172
0
LINE
8
0
10
62.744978
20
-54.361454
11
75.618463
21
-56.170705
0
LINE
8
0
10
77.566886
20
-42.306952
11
64.693402
21
-40.497701
0
LINE
8
0
10
76.183184
20
-55.745157
11
77.992434
21
-42.871672
0
LINE
8
0
10
64.128681
20
-40.923249
11
62.319431
21
-53.796734
0
ARC
8
0
10
5.557932
20
-50.628731
40
0.5
50
172
51
262
0
ARC
8
0
10
18.431417
20
-52.437981
40
0.5
50
262
51
352
0
ARC
8
0
10
20.240667
20
-39.564496
40
0.5
50
352
51
82
0
ARC
8
0
10
7.367183
20
-37.755246
40
0.5
50
82
51
172
0
LINE
8
0
10
5.488346
20
-51.123865
11
18.361831
21
-52.933115
0
LINE
8
0
10
20.310254
20
-39.069362
11
7.436769
21
-37.260112
0
LINE
8
0
10
18.926551
20
-52.507568
11
20.735801
21
-39.634083
0
LINE
8
0
10
6.872049
20
-37.685659
11
5.062798
21
-50.559144
0
ARC
8
0
10
81.01636
20
-61.233721
40
0.5
50
172
51
262
0
ARC
8
0
10
93.889844
20
-63.042971
40
0.5
50
262
51
352
0
ARC
8
0
10
95.699095
20
-50.169486
40
0.5
50
352
51
82
0
ARC
8
0
10
82.82561
20
-48.360236
40
0.5
50
82
51
172
0
LINE
8
0
10
80.946773
20
-61.728855
11
93.820258
21
-63.538105
0
LINE
8
0
10
95.768681
20
-49.674352
11
82.895196
21
-47.865102
0
LINE
8
0
10
94.384978
20
-63.112558
11
96.194229
21
-50.239073
0
LINE
8
0
10
82.330476
20
-48.29065
11
80.521226
21
-61.164134
0
ARC
8
0
10
41.961522
20
-65.363529
40
0.5
50
172
51
262
0
ARC
8
0
10
54.835007
20
-67.172779
40
0.5
50
262
51
352
0
ARC
8
0
10
56.644257
20
-54.299294
40
0.5
50
352
51
82
0
ARC
8
0
10
43.770772
20
-52.490044
40
0.5
50
82
51
172
0
LINE
8
0
10
41.891936
20
-65.858663
11
54.76542
21
-67.667913
0
LINE
8
0
10
56.713844
20
-53.80416
11
43.840359
21
-51.99491
0
LINE
8
0
10
55.330141
20
-67.242366
11
57.139391
21
-54.368881
0
LINE
8
0
10
43.275638
20
-52.420457
11
41.466388
21
-65.293942
0
ARC
8
0
10
22.434102
20
-67.428432
40
0.5
50
172
51
262
0
ARC
8
0
10
35.307587
20
-69.237683
40
0.5
50
262
51
352
0
ARC
8
0
10
37.116838
20
-56.364198
40
0.5
50
352
51
82
0
ARC
8
0
10
24.243353
20
-54.554948
40
0.5
50
82
51
172
0
LINE
8
0
10
22.364516
20
-67.923566
11
35.238001
21
-69.732817
0
LINE
8
0
10
37.186424
20
-55.869064
11
24.312939
21
-54.059814
0
LINE
8
0
10
35.802721
20
-69.307269
11
37.611972
21
-56.433784
0
LINE
8
0
10
23.748219
20
-54.485361
11
21.938968
21
-67.358846
0
ARC
8
0
10
60.163317
20
-72.730928
40
0.5
50
172
51
262
0
ARC
8
0
10
73.036802
20
-74.540178
40
0.5
50
262
51
352
0
ARC
8
0
10
74.846052
20
-61.666693
40
0.5
50
352
51
82
0
ARC
8
0
10
61.972567
20
-59.857443
40
0.5
50
82
51
172
0
LINE
8
0
10
60.09373
20
-73.226062
11
72.967215
21
-75.035312
0
LINE
8
0
10
74.915639
20
-61.171559
11
62.042154
21
-59.362309
0
LINE
8
0
10
73.531936
20
-74.609764
11
75.341186
21
-61.73628
0
LINE
8
0
10
61.477433
20
-59.787856
11
59.668183
21
-72.661341
0
ARC
8
0
10
2.906685
20
-69.493336
40
0.5
50
172
51
262
0
ARC
8
0
10
15.78017
20
-71.302587
40
0.5
50
262
51
352
0
ARC
8
0
10
17.58942
20
-58.429102
40
0.5
50
352
51
82
0
ARC
8
0
10
4.715935
20
-56.619851
40
0.5
50
82
51
172
0
LINE
8
0
10
2.837098
20
-69.98847
11
15.710583
21
-71.797721
0
LINE
8
0
10
17.659006
20
-57.933968
11
4.785522
21
-56.124717
0
LINE
8
0
10
16.275304
20
-71.372173
11
18.084554
21
-58.498688
0
LINE
8
0
10
4.220801
20
-56.550265
11
2.411551
21
-69.42375
0
ARC
8
0
10
78.365112
20
-80.098326
40
0.5
50
172
51
262
0
ARC
8
0
10
91.238597
20
-81.907577
40
0.5
50
262
51
352
0
ARC
8
0
10
93.047847
20
-69.034092
40
0.5
50
352
51
82
0
ARC
8
0
10
80.174362
20
-67.224842
40
0.5
50
82
51
172
0
LINE
8
0
10
78.295525
20
-80.59346
11
91.16901
21
-82.402711
0
LINE
8
0
10
93.117434
20
-68.538958
11
80.243949
21
-66.729708
0
LINE
8
0
10
91.733731
20
-81.977163
11
93.542981
21
-69.103678
0
LINE
8
0
10
79.679228
20
-67.155255
11
77.869978
21
-80.02874
0
ARC
8
0
10
39.310275
20
-84.228136
40
0.5
50
172
51
262
0
ARC
8
0
10
52.183759
20
-86.037386
40
0.5
50
262
51
352
0
ARC
8
0
10
53.99301
20
-73.163901
40
0.5
50
352
51
82
0
ARC
8
0
10
41.119525
20
-71.354651
40
0.5
50
82
51
172
0
LINE
8
0
10
39.240688
20
-84.72327
11
52.114173
21
-86.53252
0
LINE
8
0
10
54.062596
20
-72.668767
11
41.189111
21
-70.859517
0
LINE
8
0
10
52.678893
20
-86.106973
11
54.488144
21
-73.233488
0
LINE
8
0
10
40.624391
20
-71.285064
11
38.815141
21
-84.158549
0
ARC
8
0
10
95.572687
20
-94.539954
40
0.5
50
172
51
262
0
ARC
8
0
10
108.446172
20
-96.349205
40
0.5
50
262
51
352
0
ARC
8
0
10
110.255423
20
-83.47572
40
0.5
50
352
51
82
0
ARC
8
0
10
97.381938
20
-81.666469
40
0.5
50
82
51
172
0
LINE
8
0
10
95.503101
20
-95.035088
11
108.376586
21
-96.844339
0
LINE
8
0
10
110.325009
20
-82.980586
11
97.451524
21
-81.171335
0
LINE
8
0
10
108.941306
20
-96.418791
11
110.750557
21
-83.545306
0
LINE
8
0
10
96.886804
20
-81.596883
11
95.077553
21
-94.470368
0
ARC
8
0
10
180.309765
20
-29.316032
40
0.5
50
188
51
278
0
ARC
8
0
10
193.18325
20
-27.506782
40
0.5
50
278
51
8
0
ARC
8
0
10
191.374
20
-14.633297
40
0.5
50
8
51
98
0
ARC
8
0
10
178.500515
20
-16.442547
40
0.5
50
98
51
188
0
LINE
8
0
10
180.379352
20
-29.811166
11
193.252837
21
-28.001916
0
LINE
8
0
10
191.304413
20
-14.138163
11
178.430928
21
-15.947413
0
LINE
8
0
10
193.678384
20
-27.437195
11
191.869134
21
-14.56371
0
LINE
8
0
10
178.005381
20
-16.512134
11
179.814631
21
-29.385619
0
ARC
8
0
10
162.10797
20
-36.683431
40
0.5
50
188
51
278
0
ARC
8
0
10
174.981455
20
-34.874181
40
0.5
50
278
51
8
0
ARC
8
0
10
173.172205
20
-22.000696
40
0.5
50
8
51
98
0
ARC
8
0
10
160.29872
20
-23.809946
40
0.5
50
98
51
188
0
LINE
8
0
10
162.177557
20
-37.178565
11
175.051042
21
-35.369315
0
LINE
8
0
10
173.102618
20
-21.505562
11
160.229133
21
-23.314812
0
LINE
8
0
10
175.476589
20
-34.804594
11
173.667339
21
-21.931109
0
LINE
8
0
10
159.803586
20
-23.879533
11
161.612836
21
-36.753018
0
ARC
8
0
10
199.837183
20
-31.380936
40
0.5
50
188
51
278
0
ARC
8
0
10
212.710668
20
-29.571686
40
0.5
50
278
51
8
0
ARC
8
0
10
210.901418
20
-16.698201
40
0.5
50
8
51
98
0
ARC
8
0
10
198.027933
20
-18.507451
40
0.5
50
98
51
188
0
LINE
8
0
10
199.90677
20
-31.87607
11
212.780255
21
-30.06682
0
LINE
8
0
10
210.831831
20
-16.203067
11
197.958346
21
-18.012317
0
LINE
8
0
10
213.205802
20
-29.502099
11
211.396552
21
-16.628614
0
LINE
8
0
10
197.532799
20
-18.577038
11
199.342049
21
-31.450523
0
ARC
8
0
10
143.906175
20
-44.05083
40
0.5
50
188
51
278
0
ARC
8
0
10
156.77966
20
-42.24158
40
0.5
50
278
51
8
0
ARC
8
0
10
154.97041
20
-29.368095
40
0.5
50
8
51
98
0
ARC
8
0
10
142.096925
20
-31.177345
40
0.5
50
98
51
188
0
LINE
8
0
10
143.975762
20
-44.545964
11
156.849247
21
-42.736714
0
LINE
8
0
10
154.900823
20
-28.872961
11
142.027338
21
-30.682211
0
LINE
8
0
10
157.274794
20
-42.171993
11
155.465544
21
-29.298508
0
LINE
8
0
10
141.601791
20
-31.246932
11
143.411041
21
-44.120417
0
ARC
8
0
10
219.364603
20
-33.44584
40
0.5
50
188
51
278
0
ARC
8
0
10
232.238088
20
-31.636589
40
0.5
50
278
51
8
0
ARC
8
0
10
230.428837
20
-18.763105
40
0.5
50
8
51
98
0
ARC
8
0
10
217.555352
20
-20.572355
40
0.5
50
98
51
188
0
LINE
8
0
10
219.434189
20
-33.940974
11
232.307674
21
-32.131723
0
LINE
8
0
10
230.359251
20
-18.267971
11
217.485766
21
-20.077221
0
LINE
8
0
10
232.733222
20
-31.567003
11
230.923971
21
-18.693518
0
LINE
8
0
10
217.060218
20
-20.641941
11
218.869469
21
-33.515426
0
ARC
8
0
10
182.961013
20
-48.180639
40
0.5
50
188
51
278
0
ARC
8
0
10
195.834498
20
-46.371389
40
0.5
50
278
51
8
0
ARC
8
0
10
194.025247
20
-33.497904
40
0.5
50
8
51
98
0
ARC
8
0
10
181.151763
20
-35.307155
40
0.5
50
98
51
188
0
LINE
8
0
10
183.030599
20
-48.675773
11
195.904084
21
-46.866523
0
LINE
8
0
10
193.955661
20
-33.00277
11
181.082176
21
-34.812021
0
LINE
8
0
10
196.329632
20
-46.301803
11
194.520381
21
-33.428318
0
LINE
8
0
10
180.656629
20
-35.376741
11
182.465879
21
-48.250226
0
ARC
8
0
10
164.759218
20
-55.548038
40
0.5
50
188
51
278
0
ARC
8
0
10
177.632703
20
-53.738788
40
0.5
50
278
51
8
0
ARC
8
0
10
175.823452
20
-40.865303
40
0.5
50
8
51
98
0
ARC
8
0
10
162.949968
20
-42.674553
40
0.5
50
98
51
188
0
LINE
8
0
10
164.828804
20
-56.043172
11
177.702289
21
-54.233922
0
LINE
8
0
10
175.753866
20
-40.370169
11
162.880381
21
-42.179419
0
LINE
8
0
10
178.127837
20
-53.669201
11
176.318586
21
-40.795717
0
LINE
8
0
10
162.454834
20
-42.74414
11
164.264084
21
-55.617625
0
ARC
8
0
10
202.488432
20
-50.245543
40
0.5
50
188
51
278
0
ARC
8
0
10
215.361917
20
-48.436293
40
0.5
50
278
51
8
0
ARC
8
0
10
213.552667
20
-35.562808
40
0.5
50
8
51
98
0
ARC
8
0
10
200.679182
20
-37.372058
40
0.5
50
98
51
188
0
LINE
8
0
10
202.558019
20
-50.740677
11
215.431504
21
-48.931427
0
LINE
8
0
10
213.48308
20
-35.067674
11
200.609596
21
-36.876924
0
LINE
8
0
10
215.857051
20
-48.366706
11
214.047801
21
-35.493221
0
LINE
8
0
10
200.184048
20
-37.441645
11
201.993298
21
-50.31513
0
ARC
8
0
10
146.557423
20
-62.915437
40
0.5
50
188
51
278
0
ARC
8
0
10
159.430908
20
-61.106187
40
0.5
50
278
51
8
0
ARC
8
0
10
157.621658
20
-48.232702
40
0.5
50
8
51
98
0
ARC
8
0
10
144.748173
20
-50.041952
40
0.5
50
98
51
188
0
LINE
8
0
10
146.62701
20
-63.410571
11
159.500494
21
-61.601321
0
LINE
8
0
10
157.552071
20
-47.737568
11
144.678586
21
-49.546818
0
LINE
8
0
10
159.926042
20
-61.0366
11
158.116792
21
-48.163116
0
LINE
8
0
10
144.253039
20
-50.111539
11
146.062289
21
-62.985024
0
ARC
8
0
10
222.01585
20
-52.310447
40
0.5
50
188
51
278
0
ARC
8
0
10
234.889335
20
-50.501197
40
0.5
50
278
51
8
0
ARC
8
0
10
233.080085
20
-37.627712
40
0.5
50
8
51
98
0
ARC
8
0
10
220.2066
20
-39.436962
40
0.5
50
98
51
188
0
LINE
8
0
10
222.085437
20
-52.805581
11
234.958922
21
-50.996331
0
LINE
8
0
10
233.010498
20
-37.132578
11
220.137013
21
-38.941828
0
LINE
8
0
10
235.384469
20
-50.43161
11
233.575219
21
-37.558125
0
LINE
8
0
10
219.711466
20
-39.506549
11
221.520716
21
-52.380034
0
ARC
8
0
10
185.61226
20
-67.045247
40
0.5
50
188
51
278
0
ARC
8
0
10
198.485745
20
-65.235996
40
0.5
50
278
51
8
0
ARC
8
0
10
196.676495
20
-52.362512
40
0.5
50
8
51
98
0
ARC
8
0
10
183.80301
20
-54.171762
40
0.5
50
98
51
188
0
LINE
8
0
10
185.681847
20
-67.540381
11
198.555332
21
-65.73113
0
LINE
8
0
10
196.606908
20
-51.867378
11
183.733423
21
-53.676628
0
LINE
8
0
10
198.980879
20
-65.16641
11
197.171629
21
-52.292925
0
LINE
8
0
10
183.307876
20
-54.241348
11
185.117126
21
-67.114833
0
ARC
8
0
10
167.410465
20
-74.412646
40
0.5
50
188
51
278
0
ARC
8
0
10
180.28395
20
-72.603395
40
0.5
50
278
51
8
0
ARC
8
0
10
178.4747
20
-59.729911
40
0.5
50
8
51
98
0
ARC
8
0
10
165.601215
20
-61.539161
40
0.5
50
98
51
188
0
LINE
8
0
10
167.480052
20
-74.90778
11
180.353537
21
-73.098529
0
LINE
8
0
10
178.405113
20
-59.234777
11
165.531629
21
-61.044027
0
LINE
8
0
10
180.779084
20
-72.533809
11
178.969834
21
-59.660324
0
LINE
8
0
10
165.106081
20
-61.608747
11
166.915331
21
-74.482232
0
ARC
8
0
10
205.13968
20
-69.110151
40
0.5
50
188
51
278
0
ARC
8
0
10
218.013165
20
-67.3009
40
0.5
50
278
51
8
0
ARC
8
0
10
216.203915
20
-54.427415
40
0.5
50
8
51
98
0
ARC
8
0
10
203.33043
20
-56.236666
40
0.5
50
98
51
188
0
LINE
8
0
10
205.209267
20
-69.605285
11
218.082752
21
-67.796034
0
LINE
8
0
10
216.134328
20
-53.932281
11
203.260843
21
-55.741532
0
LINE
8
0
10
218.508299
20
-67.231314
11
216.699049
21
-54.357829
0
LINE
8
0
10
202.835296
20
-56.306252
11
204.644546
21
-69.179737
0
ARC
8
0
10
149.20867
20
-81.780045
40
0.5
50
188
51
278
0
ARC
8
0
10
162.082155
20
-79.970794
40
0.5
50
278
51
8
0
ARC
8
0
10
160.272905
20
-67.097309
40
0.5
50
8
51
98
0
ARC
8
0
10
147.39942
20
-68.90656
40
0.5
50
98
51
188
0
LINE
8
0
10
149.278257
20
-82.275179
11
162.151742
21
-80.465928
0
LINE
8
0
10
160.203319
20
-66.602175
11
147.329834
21
-68.411426
0
LINE
8
0
10
162.577289
20
-79.901208
11
160.768039
21
-67.027723
0
LINE
8
0
10
146.904286
20
-68.976146
11
148.713537
21
-81.849631
0
ARC
8
0
10
224.667098
20
-71.175054
40
0.5
50
188
51
278
0
ARC
8
0
10
237.540583
20
-69.365804
40
0.5
50
278
51
8
0
ARC
8
0
10
235.731332
20
-56.492319
40
0.5
50
8
51
98
0
ARC
8
0
10
222.857848
20
-58.301569
40
0.5
50
98
51
188
0
LINE
8
0
10
224.736684
20
-71.670188
11
237.610169
21
-69.860938
0
LINE
8
0
10
235.661746
20
-55.997185
11
222.788261
21
-57.806435
0
LINE
8
0
10
238.035717
20
-69.296217
11
236.226466
21
-56.422733
0
LINE
8
0
10
222.362714
20
-58.371156
11
224.171964
21
-71.244641
0
ARC
8
0
10
132.001093
20
-96.221671
40
0.5
50
188
51
278
0
ARC
8
0
10
144.874578
20
-94.41242
40
0.5
50
278
51
8
0
ARC
8
0
10
143.065328
20
-81.538935
40
0.5
50
8
51
98
0
ARC
8
0
10
130.191843
20
-83.348186
40
0.5
50
98
51
188
0
LINE
8
0
10
132.07068
20
-96.716805
11
144.944165
21
-94.907554
0
LINE
8
0
10
142.995741
20
-81.043801
11
130.122256
21
-82.853052
0
LINE
8
0
10
145.369712
20
-94.342834
11
143.560462
21
-81.469349
0
LINE
8
0
10
129.696709
20
-83.417772
11
131.505959
21
-96.291257
0
ARC
8
0
10
188.263508
20
-85.909852
40
0.5
50
188
51
278
0
ARC
8
0
10
201.136993
20
-84.100602
40
0.5
50
278
51
8
0
ARC
8
0
10
199.327743
20
-71.227117
40
0.5
50
8
51
98
0
ARC
8
0
10
186.454258
20
-73.036367
40
0.5
50
98
51
188
0
LINE
8
0
10
188.333095
20
-86.404986
11
201.206579
21
-84.595736
0
LINE
8
0
10
199.258156
20
-70.731983
11
186.384671
21
-72.541233
0
LINE
8
0
10
201.632127
20
-84.031015
11
199.822877
21
-71.15753
0
LINE
8
0
10
185.959124
20
-73.105954
11
187.768374
21
-85.979439
0
ENDSEC
0
EOF